<svg xmlns="http://www.w3.org/2000/svg" width="256.172" height="214.792" viewBox="0 0 256.172 214.792">
  <g id="Group_2" data-name="Group 2" transform="translate(-55.622 -214.416)">
    <g id="undraw_on_the_way_ldaq" transform="translate(12 163.994)">
      <path id="Path_1" data-name="Path 1" d="M344.551,88.941a51.067,51.067,0,0,0-8.316-13.253l-115.4-1.137,95.01-13.344a53.973,53.973,0,0,0-19.278-3.823A54.03,54.03,0,0,0,232.028,55.2a53.8,53.8,0,0,0-24.7-5.955c-25.64,0-47,17.759-51.8,41.307Z" transform="translate(-75.59 4.866)" fill="#e5f8ff"/>
      <path id="Path_2" data-name="Path 2" d="M281.549,288.331a49.89,49.89,0,0,0-3.6-18.641l-200,20.993a50.225,50.225,0,0,0-4.679,11.834l61.937,9.231L71.86,318.479c1.906,26.659,24.759,47.71,52.676,47.71a53.449,53.449,0,0,0,36.285-14.033,53.66,53.66,0,0,0,84.326-15.036,52.064,52.064,0,0,0,34.715-35.88l-78.323-12.147h80C281.545,288.839,281.549,288.585,281.549,288.331Z" transform="translate(-8.53 -174.774)" fill="#e5f8ff"/>
      <ellipse id="Ellipse_6" data-name="Ellipse 6" cx="104.813" cy="4.754" rx="104.813" ry="4.754" transform="translate(90.168 255.706)" fill="#2d2828" opacity="0.1"/>
      <path id="Path_26" data-name="Path 26" d="M626.112,390.113s6.682,12.641,7.2,14.445a2.437,2.437,0,0,0,2.253,1.8s6.656,1.591,8.247,1.8,15.38,1.378,15.38,1.378,3.5.108,3.923-1.165c.388-1.165,7.149-7.283,11.063-1.944a3.891,3.891,0,0,1,.566,3.474c-.719,2.291-2.2,5.928-3.78,3.665-2.227-3.182-4.817-2.288-4.817-.592s-3.564,1.066-4.728,1.3c-.636.13-2.825.713-4.718,1.222a34.36,34.36,0,0,1-6.72,1.117c-3.758.245-9.3.449-11.26-.293-2.37-.9-6.5-1.107-8.272-1.155a2.72,2.72,0,0,1-1.613-.579,25.164,25.164,0,0,1-6.125-6.965c-2.759-4.773-8.432-14.655-8.05-17.519S626.112,390.113,626.112,390.113Z" transform="translate(-441.809 -271.772)" fill="#efb7b9"/>
      <path id="Path_27" data-name="Path 27" d="M626.112,390.113s6.682,12.641,7.2,14.445a2.437,2.437,0,0,0,2.253,1.8s6.656,1.591,8.247,1.8,15.38,1.378,15.38,1.378,3.5.108,3.923-1.165c.388-1.165,7.149-7.283,11.063-1.944a3.891,3.891,0,0,1,.566,3.474c-.719,2.291-2.2,5.928-3.78,3.665-2.227-3.182-4.817-2.288-4.817-.592s-3.564,1.066-4.728,1.3c-.636.13-2.825.713-4.718,1.222a34.36,34.36,0,0,1-6.72,1.117c-3.758.245-9.3.449-11.26-.293-2.37-.9-6.5-1.107-8.272-1.155a2.72,2.72,0,0,1-1.613-.579,25.164,25.164,0,0,1-6.125-6.965c-2.759-4.773-8.432-14.655-8.05-17.519S626.112,390.113,626.112,390.113Z" transform="translate(-441.809 -271.772)" opacity="0.05"/>
      <path id="Path_28" data-name="Path 28" d="M841.7,570.271c-3.026,3.29-5.253,4.585-5.148,1.114.318-10.5-18.136-57.971-18.136-57.971l5.457-.414C835.786,533.519,840.215,554.62,841.7,570.271Z" transform="translate(-580.75 -356.427)" fill="none"/>
      <path id="Path_29" data-name="Path 29" d="M860.909,708.7a26.249,26.249,0,0,1-52.4,2.227c-.038-.426-.067-.853-.08-1.273v-.022q-.019-.474-.019-.955a26.249,26.249,0,1,1,52.5,0Z" transform="translate(-573.925 -471.949)" fill="#65617d"/>
      <circle id="Ellipse_7" data-name="Ellipse 7" cx="14.318" cy="14.318" r="14.318" transform="translate(246.417 222.419)" fill="#dce0ed"/>
      <circle id="Ellipse_8" data-name="Ellipse 8" cx="8.591" cy="8.591" r="8.591" transform="translate(252.144 228.146)" fill="#65617d"/>
      <path id="Path_30" data-name="Path 30" d="M538.8,566.969l-63.208,1.273v-9.316c.566-7.5,8.272-10.131,15.272-10.955a43.838,43.838,0,0,1,16.332,1.225c13.411,3.551,21.954,4.238,26.163,4.3a4.012,4.012,0,0,1,3.882,3.265c.2,1.066.4,2.227.582,3.373.14.9.274,1.782.395,2.606C538.566,565.117,538.8,566.969,538.8,566.969Z" transform="translate(-346.999 -380.08)" fill="#65617d"/>
      <path id="Path_31" data-name="Path 31" d="M540.38,594.846H409.073a5.17,5.17,0,0,1-4.789-3.1c-.99-2.364.395-3.872,1.871-4.757a14.874,14.874,0,0,0,6.465-7.91c1.4-4.136,2.768-10.608,3.306-20.72.554-10.458,4.34-15.629,8.432-18.136h0a16.694,16.694,0,0,1,11.079-2.02l53.24.426a10.237,10.237,0,0,1,2.6,1.7c4.744,4.416-2.173,10.182-2.173,10.182-14.849,15.7-3.608,31.6-3.608,31.6h27.242a25.069,25.069,0,0,0,14.27-4.369c3.681-2.545,5.091-5,5.657-6.494.42-1.139.846-2.275,1.355-3.376,7.146-15.5-1.473-40.71-5.193-50.138-.923-2.345-1.543-3.713-1.543-3.713l8.543-.636,5.409-.41h.054c11.906,20.535,16.332,41.636,17.818,57.271.14,1.473.255,2.9.347,4.273a19.09,19.09,0,0,1-19.075,20.322Z" transform="translate(-298.154 -356.414)" fill="#a7110d"/>
      <path id="Path_32" data-name="Path 32" d="M538.219,589.416H475.59V586.81h62.235C537.965,587.691,538.1,588.576,538.219,589.416Z" transform="translate(-346.999 -406.753)" opacity="0.1"/>
      <path id="Path_33" data-name="Path 33" d="M535.018,593.975H468.6a1.273,1.273,0,0,1-.5-.1,16.694,16.694,0,0,1,11.079-2.02l53.24.426A10.233,10.233,0,0,1,535.018,593.975Z" transform="translate(-341.893 -410.039)" opacity="0.1"/>
      <rect id="Rectangle_7" data-name="Rectangle 7" width="92.811" height="2.606" rx="1.303" transform="translate(102.169 180.678)" fill="#dce0ed"/>
      <path id="Path_34" data-name="Path 34" d="M841.7,570.271c-3.026,3.29-5.253,4.585-5.148,1.114.318-10.5-18.136-57.971-18.136-57.971l5.457-.414C835.786,533.519,840.215,554.62,841.7,570.271Z" transform="translate(-580.75 -356.427)" opacity="0.1"/>
      <path id="Path_35" data-name="Path 35" d="M860.8,705.877c-3.134.751-7,1.515-11.772,2.227q-2.663.391-5.727.751c-4.878.579-10.519,1.085-17.035,1.473q-2.768.166-5.75.3-5.584.255-11.954.388l-.079-1.273v-.022c5.934-2.4,15.272-8.788,16.774-25.438A26.262,26.262,0,0,1,860.8,705.9Z" transform="translate(-573.973 -472.016)" opacity="0.1"/>
      <path id="Path_36" data-name="Path 36" d="M792.92,664.89s30.131-3.271,19.752-49.18c0,0,14.887,13.65,24.149,21.235s25.772,18.044,25.772,18.044S852.737,664.2,792.92,664.89Z" transform="translate(-563.363 -426.458)" fill="#a7110d"/>
      <path id="Path_37" data-name="Path 37" d="M792.92,664.89s30.131-3.271,19.752-49.18c0,0,14.887,13.65,24.149,21.235s25.772,18.044,25.772,18.044S852.737,664.2,792.92,664.89Z" transform="translate(-563.363 -426.458)" fill="#fff" opacity="0.1"/>
      <circle id="Ellipse_9" data-name="Ellipse 9" cx="26.249" cy="26.249" r="26.249" transform="translate(122.809 210.487)" fill="#65617d"/>
      <circle id="Ellipse_10" data-name="Ellipse 10" cx="14.318" cy="14.318" r="14.318" transform="translate(134.741 222.419)" fill="#dce0ed"/>
      <circle id="Ellipse_11" data-name="Ellipse 11" cx="8.591" cy="8.591" r="8.591" transform="translate(140.468 228.146)" fill="#65617d"/>
      <path id="Path_38" data-name="Path 38" d="M503.555,674.4c0-16.949-13.462-30.691-30.067-30.691S443.42,657.452,443.42,674.4q0,1.075.073,2.128h59.989Q503.555,675.476,503.555,674.4Z" transform="translate(-325.065 -445.549)" opacity="0.1"/>
      <path id="Path_39" data-name="Path 39" d="M504.828,675.175c0-16.322-12.962-29.555-28.954-29.555s-28.954,13.233-28.954,29.555c0,.69.025,1.371.07,2.049h57.768C504.8,676.547,504.828,675.866,504.828,675.175Z" transform="translate(-327.452 -446.851)" fill="#a7110d"/>
      <path id="Path_40" data-name="Path 40" d="M504.828,675.175c0,.474,0,.955-.035,1.413,0,.213-.022.423-.035.636H446.99c0-.213-.025-.423-.035-.636-.022-.468-.035-.955-.035-1.413,0-16.322,12.962-29.555,28.954-29.555S504.828,658.853,504.828,675.175Z" transform="translate(-327.452 -446.851)" fill="#fff" opacity="0.1"/>
      <path id="Path_41" data-name="Path 41" d="M504.868,743c0,.213-.022.423-.035.636H447.065c0-.213-.026-.423-.035-.636Z" transform="translate(-327.527 -513.247)" opacity="0.1"/>
      <rect id="Rectangle_8" data-name="Rectangle 8" width="77.787" height="6.787" rx="3.393" transform="translate(106.802 231.01)" opacity="0.1"/>
      <rect id="Rectangle_9" data-name="Rectangle 9" width="77.787" height="6.787" rx="3.393" transform="translate(106.802 230.373)" fill="#dce0ed"/>
      <ellipse id="Ellipse_12" data-name="Ellipse 12" cx="3.812" cy="9.596" rx="3.812" ry="9.596" transform="translate(244.396 170.194) rotate(-24.33)" opacity="0.1"/>
      <ellipse id="Ellipse_13" data-name="Ellipse 13" cx="3.812" cy="9.596" rx="3.812" ry="9.596" transform="translate(244.714 169.874) rotate(-24.33)" fill="#dce0ed"/>
      <path id="Path_42" data-name="Path 42" d="M805.536,513v4.986h-9.7a16.735,16.735,0,0,1-2.7-.216c-.923-2.345-1.543-3.713-1.543-3.713l8.543-.636Z" transform="translate(-562.456 -356.427)" opacity="0.1"/>
      <path id="Path_43" data-name="Path 43" d="M781.556,462.757h-9.7c-8.524,0-15.431-6.363-15.431-14.245v-1.32c0-7.865,6.908-14.241,15.431-14.241l9.7.881Z" transform="translate(-538.477 -301.847)" fill="#a7110d"/>
      <path id="Path_44" data-name="Path 44" d="M762.84,458.768s5.807,3.1,2.466,8.352c0,0-4.1,6.72-10.541,6.083l-2.345-14.436S760.136,458.052,762.84,458.768Z" transform="translate(-535.749 -319.234)" fill="#a7110d"/>
      <path id="Path_45" data-name="Path 45" d="M760.623,458.479a6.173,6.173,0,0,1,4.722,2.488,5.085,5.085,0,0,1-.019,6.144s-4.1,6.72-10.541,6.083l-2.345-14.436A68.451,68.451,0,0,1,760.623,458.479Z" transform="translate(-535.763 -319.225)" opacity="0.1"/>
      <path id="Path_46" data-name="Path 46" d="M762.56,390.17h1.871a5.924,5.924,0,0,1,5.924,5.924v17.08a5.924,5.924,0,0,1-5.924,5.924H762.56Z" transform="translate(-519.799 -258.186)" opacity="0.1"/>
      <path id="Path_47" data-name="Path 47" d="M763.56,390.17h1.871a5.924,5.924,0,0,1,5.924,5.924v17.08a5.924,5.924,0,0,1-5.924,5.924H763.56Z" transform="translate(-520.481 -258.186)" fill="#dce0ed"/>
      <path id="Path_48" data-name="Path 48" d="M618.88,521.375s1.5.547,3.5,1.311a79.243,79.243,0,0,1,9.227,3.993c1.559.98,7.372,2.59,11.725,3.723a38.182,38.182,0,0,0,9.882,1.219c3.385-.032,7.487-.064,8.619-.064a3.559,3.559,0,0,1,.592.045c1.19.2,1.142,1,1.114,1.187v.041c-7,4.241-15.485,23.227-16.014,26.408-.4,2.386-3.894,9-5.619,12.164-.579,1.06-.955,1.731-.955,1.731l2.122,2.437,6.15,2.759,5.832,2.545s6.154.318,6.258,0,.105-3.6.105-3.6a17.349,17.349,0,0,1-2.125-1.616,35.159,35.159,0,0,1-3.92-4.006c-3.392-4.031,3.395-11.772,3.395-11.772l13.045-16.968s1.06-1.909,6.15-9.545,0-11.772,0-11.772l-8.96-3.719c-15.54-5.816-34.283-10.477-34.283-10.477l-.267-.035-3.974-.5Z" transform="translate(-444.698 -352.241)" fill="#efb7b9"/>
      <path id="Path_49" data-name="Path 49" d="M702.058,717.515s1.114,1.314.28,1.432a13.858,13.858,0,0,1-3.023-.356l-13.882-7.318s-1.511-1.076-1.868,1.034-.6,1.909-.6,1.909-1.83,3.936,0,4.75S695.787,723,695.787,723s15.95,3.621,17.461-.557-2.7-3.458-2.7-3.458-5.25-1.273-7.041-3.818C703.49,715.17,700.906,715.886,702.058,717.515Z" transform="translate(-487.84 -491.428)" fill="#444053"/>
      <path id="Path_50" data-name="Path 50" d="M677.952,521.588l-8.96-3.719c-15.54-5.816-34.283-10.477-34.283-10.477l-.267-.035-3.974-.5L618.88,521.375s1.5.547,3.5,1.311a79.254,79.254,0,0,1,9.227,3.993c1.559.98,7.372,2.59,11.725,3.723a38.182,38.182,0,0,0,9.882,1.219c3.385-.032,7.487-.064,8.619-.064a3.572,3.572,0,0,1,.592.044c1.19.2,1.142,1,1.114,1.187v.041c-7,4.241-15.485,23.227-16.014,26.408-.4,2.386-3.894,9-5.619,12.164l-.232.426c-.461-.076-1.037.089-1.241,1.292-.359,2.106-.6,1.909-.6,1.909s-1.83,3.936,0,4.75,12.81,4.038,12.81,4.038,15.95,3.621,17.462-.557-2.7-3.459-2.7-3.459-5.25-1.273-7.041-3.818a3.5,3.5,0,0,0-.465.172c-.188-.153-.388-.318-.6-.5a35.175,35.175,0,0,1-3.92-4.006c-3.392-4.031,3.395-11.772,3.395-11.772l13.045-16.968s1.06-1.909,6.15-9.545S677.952,521.588,677.952,521.588Z" transform="translate(-444.698 -352.241)" opacity="0.05"/>
      <path id="Path_51" data-name="Path 51" d="M585.3,292.933l.484.611.271.34,1.686,2.122s4.025,1.292,7.553,2.129c3.675.869,6.809,1.247,4.318-.83-1.546-1.289-1.648-3.446-1.085-5.759a23.83,23.83,0,0,1,2.024-5.123q.188-.363.372-.706a42.443,42.443,0,0,1,2.622-4.235,75.292,75.292,0,0,0-7.029-4.318c-2.914-1.508-5.307-2.167-3.789.818a6.983,6.983,0,0,1-.255,6.106c-.07.162-.146.318-.226.487a21.887,21.887,0,0,1-3,4.419A34.89,34.89,0,0,1,585.3,292.933Z" transform="translate(-421.803 -194.758)" fill="#efb7b9"/>
      <path id="Path_52" data-name="Path 52" d="M570.187,436.24l2.157,1.97,2.084,8.018H570.95l-3.84-5Z" transform="translate(-386.536 -289.597)" fill="#444053"/>
      <path id="Path_53" data-name="Path 53" d="M567.11,441.232l2.323,3.019,1.518,1.976h3.478l-.356-1.371-1.518-5.842-.21-.8-2.157-1.97-2.946,4.779Z" transform="translate(-386.536 -289.597)" opacity="0.1"/>
      <path id="Path_54" data-name="Path 54" d="M567.11,441.232l2.323,3.019,1.518,1.976h3.478l-.356-1.371-1.518-5.842-.21-.8-2.157-1.97-2.946,4.779Z" transform="translate(-386.536 -289.597)" opacity="0.1"/>
      <path id="Path_55" data-name="Path 55" d="M602.64,526.971s1.5.547,3.5,1.311a79.251,79.251,0,0,1,9.227,3.993c1.559.98,7.372,2.59,11.725,3.723a38.184,38.184,0,0,0,9.883,1.222c3.385-.032,7.487-.064,8.619-.064a3.579,3.579,0,0,1,.592.045c1.19.2,1.142,1,1.114,1.187v.041c-7,4.241-15.486,23.227-16.014,26.409-.4,2.386-3.894,9-5.619,12.164-.579,1.06-.955,1.731-.955,1.731l2.122,2.437,6.147,2.755,5.832,2.545s6.154.318,6.258,0,.105-3.6.105-3.6a17.372,17.372,0,0,1-2.125-1.616,35.154,35.154,0,0,1-3.92-4.006c-3.392-4.031,3.395-11.772,3.395-11.772L655.571,548.5s1.059-1.909,6.15-9.545,0-11.772,0-11.772l-8.164-4.668c-12.727-7.741-30.653-12.2-30.653-12.2l-.267-.035-3.974-.5Z" transform="translate(-433.625 -354.239)" fill="#efb7b9"/>
      <path id="Path_56" data-name="Path 56" d="M672,722.737l2.122,2.437,6.15,2.758,5.832,2.545s6.154.318,6.259,0,.1-3.6.1-3.6a17.37,17.37,0,0,1-2.125-1.616c-.659.353-1.406,1.015-.684,2.039,0,0,1.114,1.311.28,1.432a13.657,13.657,0,0,1-3.023-.356l-13.882-7.318-.08-.054Z" transform="translate(-480.917 -498.247)" opacity="0.1"/>
      <path id="Path_57" data-name="Path 57" d="M685.818,728.821s1.114,1.311.277,1.432a13.58,13.58,0,0,1-3.023-.359l-13.879-7.318s-1.511-1.072-1.871,1.034-.595,1.909-.595,1.909-1.83,3.939,0,4.754,12.806,4.025,12.806,4.025,15.947,3.618,17.458-.557-2.7-3.462-2.7-3.462-5.25-1.273-7.038-3.818C687.259,726.473,684.663,727.189,685.818,728.821Z" transform="translate(-476.768 -499.135)" fill="#444053"/>
      <path id="Path_58" data-name="Path 58" d="M605.3,283.271c1.839,1.273,4.645,3.287,7.041,3.287a11.738,11.738,0,0,0,1.845-.146,43,43,0,0,1,2.994-4.941s-14-9.758-10.818-3.5C607.413,280.052,606.379,281.073,605.3,283.271Z" transform="translate(-435.439 -194.75)" opacity="0.1"/>
      <path id="Path_59" data-name="Path 59" d="M591.43,246.893a11.435,11.435,0,0,0,5.221,9.609,10.516,10.516,0,0,0,1.12.636,11.454,11.454,0,1,0-6.341-10.252Z" transform="translate(-425.982 -167.175)" fill="#efb7b9"/>
      <path id="Path_60" data-name="Path 60" d="M602.64,526.971s1.5.547,3.5,1.311a16.872,16.872,0,0,1,3.083-2.37c1.168-.426,4.986-2.654,4.881-3.29s1.591-3.074,3.074-3.5.636-2.65.636-2.65,2.864-1.059,3.576-2.545,2.9-3.395,2.151-3.287a2.311,2.311,0,0,1-.9-.353l-3.974-.5Z" transform="translate(-433.625 -354.239)" opacity="0.1"/>
      <path id="Path_61" data-name="Path 61" d="M566.567,512.643s4.881,4.031,5.107,5.832,3.484,1.7,3.484,1.7,4.881-4.668,6.045-5.091,4.986-2.654,4.881-3.29,1.591-3.074,3.074-3.5.636-2.65.636-2.65,2.864-1.06,3.576-2.545,2.9-3.395,2.151-3.287a5.391,5.391,0,0,1-1.734-.824c-1.047-.636-2.374-1.5-3.455-2.227-1.145-.776-2.02-1.394-2.02-1.394s-.5-.089-1.355-.213c-4.617-.668-19.654-2.374-23.144,3.182a8.424,8.424,0,0,0-1.034,2.377C561.215,506.63,566.567,512.643,566.567,512.643Z" transform="translate(-406.251 -343.729)" fill="#444053"/>
      <path id="Path_62" data-name="Path 62" d="M576.123,511.37s-4.983,2.813-6.841,2.813S576.123,511.37,576.123,511.37Z" transform="translate(-410.704 -355.316)" opacity="0.1"/>
      <path id="Path_63" data-name="Path 63" d="M585.868,517.988s-7.42,2.495-7.42,4.454S577.755,517.193,585.868,517.988Z" transform="translate(-417.121 -359.786)" opacity="0.1"/>
      <path id="Path_64" data-name="Path 64" d="M657.405,482.81l-.105.143A.318.318,0,0,0,657.405,482.81Z" transform="translate(-470.894 -335.843)" opacity="0.1"/>
      <path id="Path_65" data-name="Path 65" d="M585.3,321.012l.484.611.271.34,1.686,2.122s4.025,1.292,7.553,2.129c3.675.869,6.809,1.247,4.318-.83-1.546-1.289-1.648-3.446-1.085-5.759l-.111-.143s.111,2.145-1.158,2.186c-1.712.054-1.734-.522-3.312-1.187-2.033-.859-4.117-2.294-4.7-3.411A34.885,34.885,0,0,1,585.3,321.012Z" transform="translate(-421.803 -222.837)" opacity="0.1"/>
      <path id="Path_66" data-name="Path 66" d="M563.39,492.121a3.675,3.675,0,0,0,2.73.064c3.287-1.063,8.486-3.621,10.923-2.5,1.954.9,9.822.872,12.727.118.722-.188,1.136-.42,1.072-.694a1.908,1.908,0,0,1,.111-.932,17.192,17.192,0,0,1,1.938-3.611l-.21-.8-2.157-1.97-2.946,4.773c-4.617-.668-19.654-2.374-23.144,3.182A8.423,8.423,0,0,0,563.39,492.121Z" transform="translate(-406.864 -335.147)" opacity="0.1"/>
      <path id="Path_67" data-name="Path 67" d="M555.745,377.716a3.609,3.609,0,0,0,4.559,1.909c3.287-1.06,8.486-3.621,10.923-2.5s14.108.8,13.79-.576,2.864-5.727,2.864-5.727-1.737-.318-2.813-5.991c-.159-.827-.3-1.769-.423-2.838a36.118,36.118,0,0,1-.185-6.6c.43-6.141,2.58-8.648,2.58-8.648a7.139,7.139,0,0,0,.423-8.059c-1.333-2.447-6.714-9.227-6.787-12.25-.067-2.743-2.689-5.931-2.689-5.931s.111,2.145-1.158,2.186c-1.712.054-1.734-.522-3.312-1.187-2.32-.98-4.7-2.708-4.859-3.863,0,0-9.723-.487-11.846,9.377s-1.378,15.272-1.06,16.44,3.073,16.227.846,22.59A21.925,21.925,0,0,0,555.745,377.716Z" transform="translate(-401.366 -223.224)" fill="#ffc700"/>
      <path id="Path_68" data-name="Path 68" d="M593.313,420.411a24.952,24.952,0,0,0,6.892,7.531,47.773,47.773,0,0,1,5.568.372c-.159-.827-.318-1.769-.423-2.838a36.123,36.123,0,0,1-.185-6.6,2.4,2.4,0,0,1-1.247-1.54c-.531-1.8-5.263-10.395-5.263-10.395s-11.069-2.864-11.454,0S590.555,415.638,593.313,420.411Z" transform="translate(-423.08 -283.247)" opacity="0.1"/>
      <path id="Path_69" data-name="Path 69" d="M593.415,390.113s6.682,12.641,7.2,14.445a2.437,2.437,0,0,0,2.253,1.8s6.656,1.591,8.247,1.8,15.39,1.378,15.39,1.378,3.5.108,3.923-1.165c.388-1.165,7.149-7.283,11.063-1.944a3.891,3.891,0,0,1,.566,3.474c-.719,2.291-2.2,5.928-3.78,3.665-2.227-3.182-4.817-2.288-4.817-.592s-3.564,1.066-4.728,1.3c-.636.13-2.825.713-4.719,1.222a34.362,34.362,0,0,1-6.736,1.117c-3.758.245-9.3.449-11.26-.293-2.367-.9-6.5-1.107-8.273-1.155a2.721,2.721,0,0,1-1.613-.579,25.164,25.164,0,0,1-6.122-6.965c-2.759-4.773-8.432-14.655-8.05-17.519S593.415,390.113,593.415,390.113Z" transform="translate(-419.513 -271.772)" fill="#efb7b9"/>
      <path id="Path_70" data-name="Path 70" d="M589.2,334.453a85.645,85.645,0,0,1,5.237,10.182c1.658,4.241,3.672,11.667,3.672,11.667l-9.972-1.168-.846-1.378s-7.121,4.454-6.271,6.363-1.909-2.864-1.7-8.273-.767-15.062,0-17.395S586.852,332.649,589.2,334.453Z" transform="translate(-417.523 -233.627)" opacity="0.1"/>
      <path id="Path_71" data-name="Path 71" d="M579.339,349.853c-.213,5.409,2.545,10.182,1.7,8.273s6.271-6.363,6.271-6.363l.837,1.378,9.968,1.168s-2.014-7.426-3.672-11.667a64.884,64.884,0,0,0-3.411-7c-1.021-1.855-1.826-3.182-1.826-3.182-1.371-1.06-4.283-1.68-6.605-1.534a8.542,8.542,0,0,0-1.079.13,3,3,0,0,0-2.065,1.123,1.488,1.488,0,0,0-.127.28C578.562,334.79,579.542,344.444,579.339,349.853Z" transform="translate(-417.528 -232.269)" fill="#ffc700"/>
      <path id="Path_72" data-name="Path 72" d="M566,437s4.216,5.807,5.489,5.966C571.479,442.979,566.07,441.773,566,437Z" transform="translate(-408.643 -304.608)" opacity="0.1"/>
      <path id="Path_73" data-name="Path 73" d="M566,463s7.954,8.034,10.5,8.113S566,463,566,463Z" transform="translate(-408.643 -322.336)" opacity="0.1"/>
      <path id="Path_74" data-name="Path 74" d="M566,473.54s5.091,5.966,5.409,5.966S565.909,477.438,566,473.54Z" transform="translate(-408.641 -329.522)" opacity="0.1"/>
      <path id="Path_75" data-name="Path 75" d="M580.33,267.023a7.057,7.057,0,0,0,2.335-.783c.274-.143.544-.3.808-.471a19.111,19.111,0,0,0,2.9-2.386,12.353,12.353,0,0,0,3.529-4.925,8.873,8.873,0,0,0,.3-1.375c.363-2.447.057-5.148,1.807-6.812a4.159,4.159,0,0,1,1.117-.754c2.482-1.18,6.08-.417,7.932-2.545,1.177-1.349,1.149-3.223,2.052-4.69a9.853,9.853,0,0,1,1.763-1.772,11.454,11.454,0,1,0-15.791,15.909c-.07.162-.146.318-.226.487-2.186,4.454-6.946,8.362-6.946,8.362l.484.611A3.115,3.115,0,0,0,580.33,267.023Z" transform="translate(-418.414 -167.114)" opacity="0.1"/>
      <path id="Path_76" data-name="Path 76" d="M475.424,225.922c-2.154,2.469-6.682,1.031-9.052,3.293-2.081,1.982-1.254,5.441-2.1,8.187a12.374,12.374,0,0,1-3.529,4.925c-2.132,2.075-4.859,4.181-7.773,3.586-1.728-.353-3.42-1.645-5.091-1.05a5.952,5.952,0,0,0-2.046,1.651,14.1,14.1,0,0,1-7.818,4.044,3.344,3.344,0,0,1-1.772-.083c-.891-.363-1.371-1.336-2.183-1.855-1.591-1.018-3.634.025-5.285.935a36.981,36.981,0,0,1-30.379,2.186l2.574-1.273c-.547-1.117-2.027-1.362-2.969-2.18-1.941-1.683-.8-5.049,1.254-6.593s4.709-2.081,6.834-3.522a1.773,1.773,0,0,0,.913-1.2,1.909,1.909,0,0,0-.347-1.063c-1.133-1.995-2.386-4.136-2.132-6.418.388-3.5,4.209-5.651,7.719-5.9s6.984.811,10.5.872a6.883,6.883,0,0,0,3.7-.76c1.524-.916,2.291-2.663,3.217-4.181a17.076,17.076,0,0,1,6.841-6.306c3.182-1.607,6.783-2.17,10.092-3.5,3.379-1.355,6.453-3.5,9.987-4.362,5.132-1.273,10.63.391,15.062,3.268,2.135,1.384,8.953,5.826,8.909,8.667-.035,1.686-2.227,2.6-3.058,3.923C476.573,222.7,476.6,224.573,475.424,225.922Z" transform="translate(-293.415 -146.376)" fill="#30242a"/>
      <g id="Group_1" data-name="Group 1" transform="translate(103.589 69.657)" opacity="0.1">
        <path id="Path_77" data-name="Path 77" d="M422.439,289.186a1.938,1.938,0,0,1,.347,1.063,1.076,1.076,0,0,1-.111.385,13.418,13.418,0,0,1-2.065-5.234A20.24,20.24,0,0,0,422.439,289.186Z" transform="translate(-413.101 -270.901)"/>
        <path id="Path_78" data-name="Path 78" d="M397.694,334.311c.939.818,2.418,1.063,2.969,2.18l-.91.452a10.236,10.236,0,0,1-1.74-1.04,2.994,2.994,0,0,1-.993-2.472,2.734,2.734,0,0,0,.675.881Z" transform="translate(-397.01 -303.649)"/>
        <path id="Path_79" data-name="Path 79" d="M431.461,271.762c1.651-.91,3.7-1.954,5.285-.935.808.519,1.292,1.492,2.183,1.855a3.331,3.331,0,0,0,1.769.083,14.108,14.108,0,0,0,7.821-4.044,5.858,5.858,0,0,1,2.046-1.651c1.661-.6,3.354.7,5.091,1.05,2.914.6,5.638-1.511,7.773-3.586a12.344,12.344,0,0,0,3.525-4.925c.853-2.746.026-6.2,2.106-8.187,2.377-2.262,6.895-.824,9.052-3.293,1.174-1.349,1.149-3.223,2.052-4.69.764-1.238,2.743-2.116,3.023-3.608a2.769,2.769,0,0,1,.353,1.273c-.035,1.686-2.227,2.6-3.058,3.923-.9,1.467-.878,3.341-2.052,4.69-2.157,2.469-6.682,1.031-9.052,3.293-2.081,1.982-1.254,5.441-2.106,8.187a12.366,12.366,0,0,1-3.525,4.925c-2.135,2.074-4.859,4.181-7.773,3.586-1.731-.353-3.424-1.645-5.091-1.05a5.894,5.894,0,0,0-2.046,1.651,14.108,14.108,0,0,1-7.821,4.044,3.332,3.332,0,0,1-1.769-.083c-.891-.363-1.375-1.336-2.183-1.855-1.591-1.018-3.634.025-5.285.935a36.982,36.982,0,0,1-30.379,2.186l1.779-.881A37.051,37.051,0,0,0,431.461,271.762Z" transform="translate(-400.003 -239.83)"/>
      </g>
      <path id="Path_80" data-name="Path 80" d="M740.614,595.7l2.676-1.295V593.9c0-.194-2.135.235-3.789.6C740.69,594.708,740.642,595.506,740.614,595.7Z" transform="translate(-526.94 -411.552)" opacity="0.1"/>
      <ellipse id="Ellipse_14" data-name="Ellipse 14" cx="6.446" cy="7.843" rx="6.446" ry="7.843" transform="translate(209.553 139.2)" fill="#a7110d"/>
      <path id="Path_81" data-name="Path 81" d="M388.24,405.42l-10.363,10.22-34.067-.595,9.367-9.625Z" transform="translate(-234.284 -268.584)" fill="#dda2a6"/>
      <path id="Path_82" data-name="Path 82" d="M461.243,440.381V405.42L450.88,415.64v34.21Z" transform="translate(-307.288 -268.584)" fill="#b77b7f"/>
      <path id="Path_83" data-name="Path 83" d="M343.81,435.67v34.805h34.067v-34.21Z" transform="translate(-234.284 -289.209)" fill="#dda2a6"/>
      <path id="Path_84" data-name="Path 84" d="M343.81,435.67v34.805h34.067v-34.21Z" transform="translate(-234.284 -289.209)" fill="#fff" opacity="0.3"/>
      <path id="Path_85" data-name="Path 85" d="M380.809,458.329l-25.336-4.349-3.3,16.634,26.084,4.792Z" transform="translate(-239.985 -301.693)" fill="#dce0ed"/>
      <path id="Path_86" data-name="Path 86" d="M389.038,474.126l-17.032-2.676-.426,2.221,17.032,2.889Z" transform="translate(-253.219 -313.605)" fill="#ffc700"/>
      <path id="Path_87" data-name="Path 87" d="M390.055,491.776l-9.688-1.406-.426,2.466,10.115,1.419Z" transform="translate(-258.919 -326.505)" fill="#ffc700"/>
      <path id="Path_88" data-name="Path 88" d="M463.584,433.594l-.461-13.764-2.663,2.628.465,13.8Z" transform="translate(-313.819 -278.409)" fill="#65617d"/>
      <path id="Path_89" data-name="Path 89" d="M357.83,416.49l32.737.442,1.1.62L389,420.181l-.92-.541-32.425-.92Z" transform="translate(-242.364 -276.131)" fill="#65617d"/>
    </g>
    <path id="Path_90" data-name="Path 90" d="M542.133,384.036c-3.684,2.456.921,3.07-5.526,7.675s4.6,8.6,7.675,7.675,8.6-1.228,7.368-7.675S545.817,381.581,542.133,384.036Z" transform="translate(62.532 -271.082) rotate(51)" fill="#c1e5f2"/>
    <path id="Path_91" data-name="Path 91" d="M542.133,384.036c-3.684,2.456.921,3.07-5.526,7.675s4.6,8.6,7.675,7.675,8.6-1.228,7.368-7.675S545.817,381.581,542.133,384.036Z" transform="translate(-452 8)" fill="#c1e5f2"/>
    <path id="Path_92" data-name="Path 92" d="M542.133,384.036c-3.684,2.456.921,3.07-5.526,7.675s4.6,8.6,7.675,7.675,8.6-1.228,7.368-7.675S545.817,381.581,542.133,384.036Z" transform="translate(-462 -8)" fill="#c1e5f2"/>
    <path id="Path_93" data-name="Path 93" d="M542.133,384.036c-3.684,2.456.921,3.07-5.526,7.675s4.6,8.6,7.675,7.675,8.6-1.228,7.368-7.675S545.817,381.581,542.133,384.036Z" transform="translate(-479 6)" fill="#c1e5f2"/>
  </g>
</svg>
